# xmcd CD database file generated by OrangeCD 5.0
#
# Track frame offsets:
#	150
#	18763
#	36465
#	51100
#
# Disc length: 1016 seconds
#
# Revision: 1
# Processed by: cddbd v1.4PL0 Copyright (c) Steve Scherf et al.
# Submitted via: OrangeCD 5.0
#
DISCID=2a03f604
DTITLE=Faith Hill - Breathe
DYEAR=1999
DGENRE=Pop
TTITLE0=Breathe (Pop Version)
TTITLE1=Breathe (Hex Hector Mix #1)
TTITLE2=This Kiss (Radio - This Kiss (Pop Version)
TTITLE3=What's In It For Me
EXTD=CD Singles
EXTT0=
EXTT1=
EXTT2=
EXTT3=
PLAYORDER=
